<svg width="426" height="110" viewBox="0 0 426 110" fill="none" xmlns="http://www.w3.org/2000/svg">
<path d="M305.544 109V106.246H299.496V105.166L305.778 96.31H307.002V105.04H308.946V106.246H307.002V109H305.544ZM305.544 105.04V98.074H305.94L300.72 105.418V105.04H305.544Z" fill="#1BA89B"/>
<path d="M284.85 109V107.884L289.35 103.186C289.938 102.574 290.376 101.992 290.664 101.44C290.964 100.876 291.114 100.294 291.114 99.694C291.114 98.962 290.886 98.41 290.43 98.038C289.974 97.654 289.314 97.462 288.45 97.462C287.778 97.462 287.154 97.582 286.578 97.822C286.014 98.05 285.468 98.416 284.94 98.92L284.4 97.75C284.88 97.27 285.492 96.886 286.236 96.598C286.98 96.298 287.766 96.148 288.594 96.148C289.878 96.148 290.868 96.448 291.564 97.048C292.26 97.636 292.608 98.476 292.608 99.568C292.608 100.372 292.41 101.14 292.014 101.872C291.63 102.592 291.066 103.336 290.322 104.104L286.344 108.136V107.722H293.148V109H284.85Z" fill="#1BA89B"/>
<path d="M273.409 109.162C271.969 109.162 270.865 108.604 270.097 107.488C269.329 106.372 268.945 104.758 268.945 102.646C268.945 100.522 269.329 98.908 270.097 97.804C270.865 96.7 271.969 96.148 273.409 96.148C274.861 96.148 275.965 96.7 276.721 97.804C277.489 98.908 277.873 100.516 277.873 102.628C277.873 104.752 277.489 106.372 276.721 107.488C275.953 108.604 274.849 109.162 273.409 109.162ZM273.409 107.866C274.417 107.866 275.167 107.44 275.659 106.588C276.151 105.736 276.397 104.416 276.397 102.628C276.397 100.828 276.151 99.514 275.659 98.686C275.167 97.846 274.417 97.426 273.409 97.426C272.413 97.426 271.663 97.846 271.159 98.686C270.667 99.526 270.421 100.84 270.421 102.628C270.421 104.416 270.667 105.736 271.159 106.588C271.663 107.44 272.413 107.866 273.409 107.866Z" fill="#1BA89B"/>
<path d="M254.264 109V107.884L258.764 103.186C259.352 102.574 259.79 101.992 260.078 101.44C260.378 100.876 260.528 100.294 260.528 99.694C260.528 98.962 260.3 98.41 259.844 98.038C259.388 97.654 258.728 97.462 257.864 97.462C257.192 97.462 256.568 97.582 255.992 97.822C255.428 98.05 254.882 98.416 254.354 98.92L253.814 97.75C254.294 97.27 254.906 96.886 255.65 96.598C256.394 96.298 257.18 96.148 258.008 96.148C259.292 96.148 260.282 96.448 260.978 97.048C261.674 97.636 262.022 98.476 262.022 99.568C262.022 100.372 261.824 101.14 261.428 101.872C261.044 102.592 260.48 103.336 259.736 104.104L255.758 108.136V107.722H262.562V109H254.264Z" fill="#1BA89B"/>
<path d="M232.822 109V97.57H228.34V96.31H238.78V97.57H234.316V109H232.822Z" fill="#1BA89B"/>
<path d="M218.433 109.162C217.413 109.162 216.501 109.03 215.697 108.766C214.893 108.502 214.191 108.124 213.591 107.632L214.131 106.444C214.551 106.756 214.971 107.02 215.391 107.236C215.823 107.44 216.285 107.596 216.777 107.704C217.269 107.8 217.821 107.848 218.433 107.848C219.501 107.848 220.293 107.65 220.809 107.254C221.325 106.858 221.583 106.33 221.583 105.67C221.583 105.106 221.403 104.674 221.043 104.374C220.683 104.074 220.053 103.834 219.153 103.654L217.263 103.276C216.099 103.036 215.229 102.646 214.653 102.106C214.089 101.566 213.807 100.834 213.807 99.91C213.807 99.154 213.999 98.494 214.383 97.93C214.779 97.366 215.331 96.928 216.039 96.616C216.747 96.304 217.569 96.148 218.505 96.148C219.405 96.148 220.227 96.286 220.971 96.562C221.715 96.826 222.351 97.216 222.879 97.732L222.357 98.884C221.793 98.38 221.199 98.02 220.575 97.804C219.963 97.576 219.267 97.462 218.487 97.462C217.503 97.462 216.723 97.678 216.147 98.11C215.583 98.53 215.301 99.106 215.301 99.838C215.301 100.426 215.481 100.888 215.841 101.224C216.201 101.548 216.795 101.794 217.623 101.962L219.531 102.34C220.755 102.592 221.655 102.97 222.231 103.474C222.807 103.978 223.095 104.686 223.095 105.598C223.095 106.294 222.903 106.912 222.519 107.452C222.147 107.992 221.613 108.412 220.917 108.712C220.221 109.012 219.393 109.162 218.433 109.162Z" fill="#1BA89B"/>
<path d="M201.648 109.162C199.932 109.162 198.654 108.724 197.814 107.848C196.986 106.972 196.572 105.682 196.572 103.978V96.31H198.048V103.906C198.048 105.214 198.336 106.198 198.912 106.858C199.488 107.518 200.4 107.848 201.648 107.848C202.824 107.848 203.718 107.518 204.33 106.858C204.942 106.198 205.248 105.214 205.248 103.906V96.31H206.724V103.978C206.724 105.682 206.292 106.972 205.428 107.848C204.576 108.724 203.316 109.162 201.648 109.162Z" fill="#1BA89B"/>
<path d="M184.81 109.162C183.418 109.162 182.254 108.904 181.318 108.388C180.382 107.872 179.68 107.128 179.212 106.156C178.744 105.184 178.51 104.02 178.51 102.664C178.51 101.32 178.756 100.162 179.248 99.19C179.74 98.218 180.448 97.468 181.372 96.94C182.296 96.412 183.412 96.148 184.72 96.148C185.644 96.148 186.442 96.286 187.114 96.562C187.798 96.826 188.41 97.222 188.95 97.75L188.392 98.92C187.996 98.572 187.612 98.296 187.24 98.092C186.88 97.888 186.502 97.738 186.106 97.642C185.71 97.534 185.248 97.48 184.72 97.48C183.22 97.48 182.068 97.936 181.264 98.848C180.472 99.748 180.076 101.026 180.076 102.682C180.076 104.35 180.46 105.628 181.228 106.516C182.008 107.404 183.214 107.848 184.846 107.848C185.446 107.848 186.016 107.794 186.556 107.686C187.108 107.566 187.642 107.398 188.158 107.182L187.834 107.992V103.528H184.594V102.358H189.112V108.244C188.596 108.52 187.942 108.742 187.15 108.91C186.37 109.078 185.59 109.162 184.81 109.162Z" fill="#1BA89B"/>
<path d="M166.334 109.162C164.618 109.162 163.34 108.724 162.5 107.848C161.672 106.972 161.258 105.682 161.258 103.978V96.31H162.734V103.906C162.734 105.214 163.022 106.198 163.598 106.858C164.174 107.518 165.086 107.848 166.334 107.848C167.51 107.848 168.404 107.518 169.016 106.858C169.628 106.198 169.934 105.214 169.934 103.906V96.31H171.41V103.978C171.41 105.682 170.978 106.972 170.114 107.848C169.262 108.724 168.002 109.162 166.334 109.162Z" fill="#1BA89B"/>
<path d="M142.421 109L148.019 96.31H149.315L155.003 109H153.455L151.871 105.382L152.537 105.76H144.779L145.499 105.382L143.951 109H142.421ZM148.649 98.02L145.733 104.86L145.301 104.536H151.997L151.673 104.86L148.685 98.02H148.649Z" fill="#1BA89B"/>
<path d="M122.165 109.162C121.505 109.162 120.839 109.024 120.167 108.748C119.495 108.46 118.937 108.088 118.493 107.632L119.051 106.462C119.507 106.93 120.005 107.278 120.545 107.506C121.085 107.734 121.631 107.848 122.183 107.848C123.395 107.848 124.325 107.416 124.973 106.552C125.633 105.676 125.963 104.368 125.963 102.628V100.954H126.143C126.071 101.626 125.861 102.214 125.513 102.718C125.177 103.222 124.739 103.606 124.199 103.87C123.671 104.134 123.077 104.266 122.417 104.266C121.649 104.266 120.965 104.098 120.365 103.762C119.777 103.426 119.315 102.952 118.979 102.34C118.643 101.728 118.475 101.038 118.475 100.27C118.475 99.466 118.649 98.758 118.997 98.146C119.357 97.522 119.843 97.036 120.455 96.688C121.079 96.328 121.793 96.148 122.597 96.148C124.145 96.148 125.333 96.688 126.161 97.768C127.001 98.848 127.421 100.372 127.421 102.34C127.421 103.792 127.211 105.028 126.791 106.048C126.371 107.068 125.771 107.842 124.991 108.37C124.211 108.898 123.269 109.162 122.165 109.162ZM122.723 103.024C123.275 103.024 123.761 102.904 124.181 102.664C124.601 102.424 124.925 102.094 125.153 101.674C125.393 101.254 125.513 100.768 125.513 100.216C125.513 99.652 125.393 99.16 125.153 98.74C124.925 98.32 124.601 97.99 124.181 97.75C123.761 97.51 123.275 97.39 122.723 97.39C122.171 97.39 121.679 97.51 121.247 97.75C120.827 97.99 120.497 98.32 120.257 98.74C120.029 99.16 119.915 99.652 119.915 100.216C119.915 100.768 120.029 101.254 120.257 101.674C120.497 102.094 120.827 102.424 121.247 102.664C121.679 102.904 122.171 103.024 122.723 103.024Z" fill="#1BA89B"/>
<path d="M419.435 58.492C415.171 58.492 412.055 56.114 412.055 50.866V36.024C412.055 30.366 409.267 26.02 404.183 26.02C399.017 26.02 396.065 30.366 396.065 36.024V50.21C396.065 53.982 397.459 55.13 401.231 55.458V58H380.977V55.458C384.831 55.13 386.225 53.982 386.225 50.21V29.546C386.225 25.774 384.667 24.79 380.977 25.118V22.576L392.457 20.444C394.835 20.034 396.065 21.1 396.065 22.986C396.065 25.938 397.377 26.676 398.443 25.446C400.165 23.396 403.281 20.116 409.759 20.116C415.827 20.116 421.895 23.068 421.895 34.138V50.866C421.895 53.654 423.289 54.802 425.667 54.064V55.54C424.601 57.672 421.895 58.492 419.435 58.492Z" fill="#1BA89B"/>
<path d="M360.733 55.458C364.587 55.13 365.981 53.982 365.981 50.21V29.546C365.981 25.774 364.423 24.79 360.733 25.118V22.576L372.213 20.444C374.591 20.034 375.821 21.1 375.821 23.314V50.21C375.821 53.982 377.215 55.13 380.987 55.458V58H360.733V55.458ZM366.391 13.884C365.735 13.064 365.899 12.08 366.719 11.178L374.509 2.65C375.903 1.092 377.297 0.026001 378.937 0.026001C380.905 0.026001 382.381 1.666 382.381 3.552C382.381 5.274 381.151 6.668 378.937 7.98L369.097 14.048C368.031 14.704 367.047 14.704 366.391 13.884Z" fill="#1BA89B"/>
<path d="M343.487 58.492C338.075 58.492 333.483 56.934 330.695 54.802C328.645 50.538 328.399 45.536 331.515 45.536C332.663 45.536 333.401 46.11 333.811 47.34C335.779 53.244 339.223 55.54 344.061 55.54C349.555 55.54 351.113 52.752 351.113 50.128C351.113 46.52 347.751 45.372 342.585 43.814C335.943 41.764 329.629 38.566 329.629 31.432C329.629 24.298 336.271 20.28 344.717 20.28C349.637 20.28 354.229 21.674 357.017 23.724C359.067 27.988 359.313 32.908 356.197 32.908C355.049 32.908 354.311 32.334 353.901 31.104C351.933 25.2 348.407 23.068 344.225 23.068C340.289 23.068 338.485 25.036 338.485 27.988C338.485 31.678 341.601 33.482 345.537 34.712C351.441 36.516 360.297 38.73 360.297 46.93C360.297 54.556 352.425 58.492 343.487 58.492Z" fill="#1BA89B"/>
<path d="M308.875 55.458C312.729 55.13 314.123 53.982 314.123 50.21V29.546C314.123 25.774 312.565 24.79 308.957 25.118V22.576L320.355 20.444C322.733 20.034 323.963 21.1 323.963 23.314V50.21C323.963 53.982 325.357 55.13 329.129 55.458V58H308.875V55.458ZM312.319 8.882C312.319 5.602 314.943 3.142 318.141 3.142C321.257 3.142 323.881 5.602 323.881 8.882C323.881 12.162 321.257 14.622 318.141 14.622C314.943 14.622 312.319 12.162 312.319 8.882Z" fill="#1BA89B"/>
<path d="M281.175 58.82C267.071 58.82 254.607 49.062 254.607 32.744C254.607 16.18 267.317 5.76599 281.913 5.76599C296.017 5.76599 308.481 15.524 308.481 31.678C308.481 48.406 295.771 58.82 281.175 58.82ZM266.743 28.562C266.743 44.06 274.287 55.212 283.471 55.212C289.703 55.212 296.345 50.046 296.345 35.86C296.345 20.526 288.801 9.37399 279.617 9.37399C273.385 9.37399 266.743 14.54 266.743 28.562Z" fill="#1BA89B"/>
<path d="M210.504 58.82C196.892 58.82 185.33 53.08 185.33 42.092C185.33 32.58 194.022 28.152 199.024 28.152C194.186 26.922 190.824 22.986 190.824 17.82C190.824 10.522 197.466 5.76599 206.814 5.76599C214.768 5.76599 221.246 9.20999 221.246 14.704C221.246 17.902 219.114 19.788 216.49 19.788C214.03 19.788 211.816 18.066 211.816 14.95C211.816 11.752 211.242 8.71799 206.978 8.71799C202.96 8.71799 200.336 11.424 200.336 16.344C200.336 20.526 202.304 26.758 209.438 29.054L208.29 31.678C207.224 31.35 206.404 31.104 205.092 31.104C199.352 31.104 196.154 35.778 196.154 41.764C196.154 49.39 201.32 55.786 211.652 55.786C222.722 55.786 226.248 48.488 226.248 42.748C226.248 37.582 223.378 33.974 219.196 33.974C216.162 33.974 214.604 35.86 214.604 37.828C214.604 38.73 214.932 39.632 215.588 40.534H213.046C211.816 39.796 210.832 38.484 210.832 36.598C210.832 27.66 233.382 26.676 233.382 16.016C233.382 11.916 230.02 9.45599 226.248 11.752L225.018 10.03C226.986 7.65199 229.856 6.74999 232.808 6.74999C238.22 6.74999 242.73 9.78399 242.73 15.524C242.73 23.806 233.218 26.922 222.312 31.514C231.906 31.514 236.498 36.68 236.58 42.584C236.744 52.096 225.182 58.82 210.504 58.82Z" fill="#1BA89B"/>
<path d="M156.516 58.492C146.266 58.492 136.754 52.014 136.754 39.55C136.754 26.676 146.758 20.28 157.008 20.28C165.536 20.28 171.768 24.708 171.768 31.432C171.768 37.992 165.946 39.058 156.844 39.632L150.038 40.042C148.562 40.124 147.906 40.862 147.906 42.666C147.906 48.734 154.22 52.916 161.108 52.916C164.306 52.916 168.242 52.014 171.112 48.57L173.08 50.292C171.522 53.326 165.7 58.492 156.516 58.492ZM147.414 34.056C147.414 36.598 148.152 37.418 150.12 37.336L154.384 37.09C160.944 36.68 162.584 35.286 162.584 31.514C162.584 27.332 160.616 23.396 155.696 23.396C149.546 23.396 147.414 29.464 147.414 34.056Z" fill="#1BA89B"/>
<path d="M111.634 55.458C116.062 55.13 117.456 53.982 117.456 50.374V27.742C117.456 25.364 116.8 24.872 115.242 24.872H110.896V22.576C115.078 21.92 117.456 21.264 117.456 18.558C117.456 7.81599 123.934 2.07599 133.2 2.07599C138.94 2.07599 143.696 4.28999 143.696 8.63599C143.696 11.096 142.138 12.982 139.022 12.982C132.544 12.982 134.594 4.86399 130.33 4.86399C127.87 4.86399 127.296 7.56999 127.296 13.392V18.804C127.296 20.936 128.198 21.428 132.134 21.428H137.874V25.118L132.134 24.708C128.198 24.462 127.296 25.364 127.296 27.906V50.374C127.296 53.982 128.69 55.13 134.594 55.458V58H111.634V55.458Z" fill="#1BA89B"/>
<path d="M91.4722 55.458C95.3262 55.13 96.7202 53.982 96.7202 50.21V29.546C96.7202 25.774 95.1622 24.79 91.5542 25.118V22.576L102.952 20.444C105.33 20.034 106.56 21.1 106.56 23.314V50.21C106.56 53.982 107.954 55.13 111.726 55.458V58H91.4722V55.458ZM94.9162 8.882C94.9162 5.602 97.5402 3.142 100.738 3.142C103.854 3.142 106.478 5.602 106.478 8.882C106.478 12.162 103.854 14.622 100.738 14.622C97.5402 14.622 94.9162 12.162 94.9162 8.882Z" fill="#1BA89B"/>
<path d="M72.2694 58.492C62.1834 58.492 52.5894 51.932 52.5894 39.304C52.5894 26.676 62.1834 20.28 72.1874 20.28C82.2734 20.28 91.8674 26.84 91.8674 39.468C91.8674 52.096 82.2734 58.492 72.2694 58.492ZM63.1674 35.942C63.1674 46.356 67.4314 55.376 73.9094 55.376C78.1734 55.376 81.2894 51.604 81.2894 42.748C81.2894 32.416 77.1074 23.396 70.5474 23.396C66.2014 23.396 63.1674 27.168 63.1674 35.942Z" fill="#1BA89B"/>
<path d="M0.945312 55.376C5.53731 54.392 7.25931 51.932 9.14531 47.668L23.4133 15.196C25.0533 11.506 25.4633 8.63599 25.4633 7.078L31.6133 6.504L49.2433 45.7C52.0313 51.85 52.9333 54.474 57.1153 55.458V58H35.2213V55.376C40.1413 54.556 40.1413 52.424 38.5833 48.816L37.5173 46.356C36.5333 44.06 34.7293 43.732 32.6793 43.732H19.2313C17.0173 43.732 15.4593 44.142 14.5573 46.274L13.6553 48.324C11.9333 52.342 13.9013 54.556 19.1493 55.376V58H0.945312V55.376ZM18.0013 38.402C17.5093 39.55 18.4113 40.206 19.2313 40.206H32.5973C33.4993 40.206 34.3193 39.468 33.7453 38.156L26.6113 22.248C25.9553 20.854 25.6273 20.854 25.0533 22.248L18.0013 38.402Z" fill="#1BA89B"/>
</svg>
