<svg width="553" height="91" viewBox="0 0 553 91" fill="none" xmlns="http://www.w3.org/2000/svg">
<path d="M545.874 30.02C546.954 19.52 545.334 12.98 546.114 7.22003C546.474 4.46003 547.854 2.78003 549.954 2.78003C551.994 2.78003 553.074 4.46003 552.714 7.22003C551.934 12.98 548.814 19.52 547.374 30.02H545.874ZM542.514 38.06C542.514 36.2 543.954 34.7 545.754 34.7C547.494 34.7 548.994 36.2 548.994 38.06C548.994 39.86 547.494 41.36 545.754 41.36C543.954 41.36 542.514 39.86 542.514 38.06Z" fill="#1AA497"/>
<path d="M523.171 41.3601C517.771 41.3601 513.751 37.4601 513.751 30.3801C513.751 21.3201 520.531 13.4001 528.091 13.4001C532.831 13.4001 534.091 16.4001 534.571 12.5601L535.051 8.66008C535.531 4.82008 534.271 3.98008 531.631 3.98008L531.811 2.78008C535.411 2.78008 538.171 2.12008 540.271 1.58008L535.831 36.2601C535.531 38.6601 537.391 39.4401 539.371 38.3601L539.131 39.5601C537.691 40.8801 536.191 41.3601 534.931 41.3601C532.831 41.3601 531.991 39.8601 531.571 38.7201C531.271 37.7001 530.911 37.8801 530.131 38.6001C528.031 40.5201 525.691 41.3601 523.171 41.3601ZM518.551 29.0601C518.551 34.7001 521.071 38.9001 525.391 38.9001C528.571 38.9001 531.631 36.8001 532.591 28.1601L533.191 23.4201C533.851 17.6001 532.531 14.8401 528.451 14.8401C521.791 14.8401 518.551 22.5801 518.551 29.0601Z" fill="#1AA497"/>
<path d="M499.31 41.36C492.83 41.36 488.09 36.56 488.09 29.3C488.09 22.22 492.71 13.28 502.01 13.28C507.47 13.28 510.23 16.22 510.23 20.18C510.23 24.32 507.23 27.38 498.23 28.88L494.99 29.42C493.49 29.66 493.13 30.98 493.91 32.9C495.17 36.08 497.69 38.36 501.41 38.36C503.75 38.36 506.45 37.46 508.19 35.48L509.03 36.44C507.41 38.48 504.29 41.36 499.31 41.36ZM492.77 26C492.77 27.8 493.91 28.22 495.29 27.98L497.27 27.68C504.83 26.42 505.73 23.12 505.73 20.3C505.73 16.88 504.23 14.66 501.05 14.66C496.43 14.66 492.77 19.4 492.77 26Z" fill="#1AA497"/>
<path d="M479.538 41.3601C477.498 41.3601 475.698 40.1001 476.058 37.2201L478.758 18.4401C479.118 16.1001 477.258 15.5601 475.398 16.5201L475.638 15.3201C476.898 14.0001 478.638 13.5201 479.898 13.5201C481.818 13.5201 483.618 14.7201 483.198 17.6601L480.558 36.2601C480.198 38.6601 482.058 39.4401 484.038 38.3601L483.798 39.5601C482.418 40.8801 480.798 41.3601 479.538 41.3601ZM478.998 3.86011C478.998 2.12011 480.318 0.860107 481.938 0.860107C483.618 0.860107 484.938 2.12011 484.938 3.86011C484.938 5.60011 483.618 6.86011 481.938 6.86011C480.318 6.86011 478.998 5.60011 478.998 3.86011Z" fill="#1AA497"/>
<path d="M456.025 18.56C456.325 16.22 454.465 15.56 452.605 16.52L452.845 15.32C454.105 14 455.605 13.52 456.925 13.52C458.905 13.52 460.465 14.54 460.465 18.14C460.465 19.58 460.885 19.64 461.485 18.44C462.625 16.16 465.265 13.28 469.045 13.28C471.265 13.28 472.645 14.36 472.645 16.1C472.645 17.54 471.625 18.98 469.165 19.94H469.105C469.225 17.84 468.265 16.64 466.585 16.64C462.865 16.64 459.865 21.56 458.905 29.54L457.465 41H453.205L456.025 18.56Z" fill="#1AA497"/>
<path d="M433.232 18.56C433.532 16.22 431.672 15.56 429.812 16.52L430.052 15.32C431.312 14 432.812 13.52 434.132 13.52C436.112 13.52 437.672 14.54 437.672 18.14C437.672 19.58 438.092 19.64 438.692 18.44C439.832 16.16 442.472 13.28 446.252 13.28C448.472 13.28 449.852 14.36 449.852 16.1C449.852 17.54 448.832 18.98 446.372 19.94H446.312C446.432 17.84 445.472 16.64 443.792 16.64C440.072 16.64 437.072 21.56 436.112 29.54L434.672 41H430.412L433.232 18.56Z" fill="#1AA497"/>
<path d="M408.386 41.3599C402.986 41.3599 399.026 37.5199 399.026 30.3199C399.026 21.1999 405.206 13.3999 413.966 13.3999C417.386 13.3999 418.886 14.5399 420.686 14.5399C422.006 14.5399 422.306 13.9399 422.966 13.9399C423.506 13.9399 423.806 14.2399 423.746 14.8399L421.046 36.2599C420.746 38.6599 422.606 39.4399 424.586 38.3599L424.346 39.5599C422.906 40.8799 421.646 41.3599 420.326 41.3599C418.166 41.3599 417.086 40.0399 416.786 38.7199C416.606 37.6999 416.126 37.8799 415.346 38.5999C413.246 40.5199 410.906 41.3599 408.386 41.3599ZM403.886 29.0599C403.886 34.6999 406.286 38.8999 410.666 38.8999C413.786 38.8999 416.786 36.7999 417.806 28.1599L418.346 24.0199C419.126 17.5999 417.686 14.8399 413.726 14.8399C407.006 14.8399 403.886 22.5799 403.886 29.0599Z" fill="#1AA497"/>
<path d="M353.059 39.74C355.339 39.32 356.659 38.9 356.959 36.68L360.499 8.05999C360.799 5.83999 359.479 5.41999 357.259 4.99999L357.439 3.73999H366.079L374.959 32L390.199 3.73999H398.839L398.659 4.99999C396.259 5.41999 394.999 5.83999 394.699 8.05999L391.219 36.68C390.919 38.9 392.119 39.32 394.399 39.74L394.219 41H382.099L382.219 39.74C384.739 39.32 385.939 38.9 386.239 36.68L389.779 7.99999L373.639 37.82H371.899L362.419 8.41999L358.939 36.68C358.639 38.9 359.719 39.32 361.879 39.74L361.759 41H352.879L353.059 39.74Z" fill="#1AA497"/>
<path d="M323.812 52.3999C317.332 52.3999 312.232 49.9999 312.232 45.4999C312.232 39.7399 320.392 39.2599 317.932 38.8999C315.352 38.4799 313.492 36.7399 313.492 34.5799C313.492 32.5399 315.172 30.9199 318.532 30.4399C315.712 28.8199 314.032 26.2999 314.032 22.6999C314.032 17.2399 318.112 13.3999 325.072 13.3999C329.152 13.3999 332.872 14.8399 334.732 17.5999C334.672 15.4399 335.572 13.4599 338.212 13.4599C339.952 13.4599 341.032 14.3599 341.032 15.6799C341.032 17.3599 339.472 18.0199 338.092 17.5999C336.412 17.0599 335.272 17.8999 335.812 19.6999C336.112 20.6599 336.172 21.6199 336.172 22.5799C336.172 28.0399 332.032 31.7599 325.372 31.7599C323.212 31.7599 321.592 31.3999 320.212 31.3999C318.592 31.3999 317.812 32.1799 317.812 33.1399C317.812 34.2199 318.892 34.8199 320.572 35.0599L330.172 36.7399C335.812 37.6999 339.232 39.1399 339.232 42.9799C339.232 48.6199 331.972 52.3999 323.812 52.3999ZM317.032 44.7799C317.032 48.9199 321.052 50.8399 325.792 50.8399C330.892 50.8399 334.432 48.5599 334.432 44.8399C334.432 42.4399 332.872 41.4799 329.512 40.8799L325.492 40.2199C319.252 39.1399 317.032 41.7199 317.032 44.7799ZM319.132 21.4399C319.132 26.5399 321.832 30.4399 326.092 30.4399C329.812 30.4399 331.012 27.1399 331.012 23.7199C331.012 18.6199 328.312 14.7799 324.112 14.7799C320.332 14.7799 319.132 18.0199 319.132 21.4399Z" fill="#1AA497"/>
<path d="M306.189 41.3599C303.969 41.3599 302.349 40.1599 302.349 37.0999V24.7399C302.349 19.8199 300.009 16.3999 295.569 16.3999C291.069 16.3999 288.309 19.8199 288.309 24.7399V36.5599C288.309 38.7199 289.329 39.4399 292.209 39.7399V40.9999H279.669V39.7399C282.489 39.4399 283.509 38.7199 283.509 36.5599V19.6399C283.509 16.9399 282.969 15.8599 279.609 16.1599V15.0199L286.209 13.5199C287.529 13.2199 288.309 13.8199 288.309 15.3199C288.309 17.6599 288.909 18.3799 289.689 17.5399C290.529 16.6999 292.989 13.3999 298.209 13.3999C302.949 13.3999 307.149 16.1599 307.149 23.3599V36.9799C307.149 39.0799 308.469 39.3799 310.209 39.0199V39.7399C309.489 40.6999 307.809 41.3599 306.189 41.3599Z" fill="#1AA497"/>
<path d="M264.023 39.7401C266.903 39.4401 267.923 38.7201 267.923 36.5601V19.6401C267.923 16.9401 267.383 15.8601 264.083 16.1601V15.0201L270.623 13.5201C271.943 13.2201 272.723 13.8201 272.723 15.2601V36.5601C272.723 38.7201 273.743 39.4401 276.623 39.7401V41.0001H264.023V39.7401ZM266.783 3.86011C266.783 2.12011 268.103 0.860107 269.783 0.860107C271.463 0.860107 272.783 2.12011 272.783 3.86011C272.783 5.60011 271.463 6.86011 269.783 6.86011C268.103 6.86011 266.783 5.60011 266.783 3.86011Z" fill="#1AA497"/>
<path d="M254.954 41.2999C250.814 41.2999 247.994 39.1999 247.994 34.2199V17.5999C247.994 16.0399 247.514 15.7399 246.674 15.7399H243.854V14.4199C247.154 13.1599 249.134 11.2999 250.934 8.11989C251.114 7.7599 251.414 7.63989 251.714 7.63989H252.254C252.614 7.63989 252.854 7.87989 252.854 8.2399L252.794 12.3799C252.794 13.5799 253.214 13.9399 255.794 13.9399H260.414V16.0999L255.794 15.8599C253.214 15.7399 252.794 16.2199 252.794 17.7199V33.5599C252.794 37.0999 253.454 39.3199 256.394 39.3199C257.834 39.3199 258.914 38.7799 259.634 38.1199C260.414 38.7199 260.294 39.2599 260.054 39.4399C258.974 40.5199 257.414 41.2999 254.954 41.2999Z" fill="#1AA497"/>
<path d="M235.676 41.2999C231.536 41.2999 228.716 39.1999 228.716 34.2199V17.5999C228.716 16.0399 228.236 15.7399 227.396 15.7399H224.576V14.4199C227.876 13.1599 229.856 11.2999 231.656 8.11989C231.836 7.7599 232.136 7.63989 232.436 7.63989H232.976C233.336 7.63989 233.576 7.87989 233.576 8.2399L233.516 12.3799C233.516 13.5799 233.936 13.9399 236.516 13.9399H241.136V16.0999L236.516 15.8599C233.936 15.7399 233.516 16.2199 233.516 17.7199V33.5599C233.516 37.0999 234.176 39.3199 237.116 39.3199C238.556 39.3199 239.636 38.7799 240.356 38.1199C241.136 38.7199 241.016 39.2599 240.776 39.4399C239.696 40.5199 238.136 41.2999 235.676 41.2999Z" fill="#1AA497"/>
<path d="M211.21 41.3599C203.71 41.3599 197.41 36.0199 197.41 27.3199C197.41 18.4399 203.77 13.3999 211.33 13.3999C217.45 13.3999 221.17 16.6999 221.17 21.1999C221.17 25.1599 218.23 26.5999 209.71 26.9599L204.37 27.1999C203.23 27.2599 202.81 27.8599 202.81 29.1199C202.81 33.5599 207.13 38.1199 213.67 38.1199C216.31 38.1199 219.19 37.3399 221.23 34.6999L222.19 35.4799C221.05 37.5799 217.57 41.3599 211.21 41.3599ZM202.51 23.5399C202.51 25.5799 203.23 25.7599 204.49 25.6999L208.87 25.6399C214.57 25.4599 216.25 24.4999 216.25 21.2599C216.25 17.8999 214.51 15.0199 210.25 15.0199C204.97 15.0199 202.51 19.5199 202.51 23.5399Z" fill="#1AA497"/>
<path d="M176.419 41.6C165.739 41.6 157.039 34.58 157.039 22.52C157.039 9.92003 166.399 2.78003 177.019 2.78003C185.899 2.78003 191.059 7.76003 191.059 12.02C191.059 14.12 189.859 15.68 187.699 15.68C185.899 15.68 184.759 14.48 184.519 12.62C184.039 9.14003 181.519 4.70003 174.919 4.70003C167.479 4.70003 162.499 10.16 162.499 19.34C162.499 31.04 170.719 39.68 179.899 39.68C183.199 39.68 185.299 38.54 185.299 35.24V31.04C185.299 26.66 184.579 25.52 179.959 25.16V23.96H194.119V25.16C190.819 25.58 190.339 26.66 190.339 31.04V35.42C190.339 36.92 190.339 38.96 190.519 40.52C190.579 41.12 190.099 41.3 189.559 41C188.719 40.58 187.939 40.28 186.559 40.28C183.559 40.28 180.979 41.6 176.419 41.6Z" fill="#1AA497"/>
<path d="M131.112 41.3599C123.612 41.3599 117.312 36.0199 117.312 27.3199C117.312 18.4399 123.672 13.3999 131.232 13.3999C137.352 13.3999 141.072 16.6999 141.072 21.1999C141.072 25.1599 138.132 26.5999 129.612 26.9599L124.272 27.1999C123.132 27.2599 122.712 27.8599 122.712 29.1199C122.712 33.5599 127.032 38.1199 133.572 38.1199C136.212 38.1199 139.092 37.3399 141.132 34.6999L142.092 35.4799C140.952 37.5799 137.472 41.3599 131.112 41.3599ZM122.412 23.5399C122.412 25.5799 123.132 25.7599 124.392 25.6999L128.772 25.6399C134.472 25.4599 136.152 24.4999 136.152 21.2599C136.152 17.8999 134.412 15.0199 130.152 15.0199C124.872 15.0199 122.412 19.5199 122.412 23.5399Z" fill="#1AA497"/>
<path d="M91.8764 39.7399C94.6964 39.4399 95.7164 38.7199 95.7164 36.5599V19.6399C95.7164 16.9399 95.1764 15.8599 91.8164 16.1599V15.0199L98.4164 13.5199C99.7364 13.2199 100.516 13.8199 100.516 15.3199V16.9999C100.516 17.6599 101.056 17.9599 101.776 17.2999C102.556 16.4599 105.076 13.3999 109.456 13.3999C113.536 13.3999 114.916 16.0999 114.916 18.2599C114.916 20.3599 113.776 21.7999 111.796 21.7999C108.076 21.7999 110.716 16.2799 106.456 16.2799C103.156 16.2799 100.516 19.6999 100.516 27.0199V36.5599C100.516 38.7199 101.536 39.4399 104.536 39.7399V40.9999H91.8764V39.7399Z" fill="#1AA497"/>
<path d="M83.4884 13.82C84.6884 12.8 85.6484 11.06 85.6484 10.1C85.6484 9.43997 85.2884 9.07997 84.6884 9.07997C82.9484 9.07997 81.6284 7.75997 81.6284 5.95997C81.6284 3.97997 83.1884 2.71997 84.9884 2.71997C87.4484 2.71997 88.5284 4.81997 88.5284 7.15997C88.5284 9.97997 86.8484 12.98 84.2684 14.66L83.4884 13.82Z" fill="#1AA497"/>
<path d="M69.7644 41.3599C62.2643 41.3599 55.9644 36.0199 55.9644 27.3199C55.9644 18.4399 62.3244 13.3999 69.8844 13.3999C76.0044 13.3999 79.7244 16.6999 79.7244 21.1999C79.7244 25.1599 76.7844 26.5999 68.2644 26.9599L62.9244 27.1999C61.7844 27.2599 61.3643 27.8599 61.3643 29.1199C61.3643 33.5599 65.6844 38.1199 72.2244 38.1199C74.8644 38.1199 77.7444 37.3399 79.7844 34.6999L80.7444 35.4799C79.6044 37.5799 76.1244 41.3599 69.7644 41.3599ZM61.0644 23.5399C61.0644 25.5799 61.7843 25.7599 63.0443 25.6999L67.4244 25.6399C73.1244 25.4599 74.8044 24.4999 74.8044 21.2599C74.8044 17.8999 73.0644 15.0199 68.8044 15.0199C63.5244 15.0199 61.0644 19.5199 61.0644 23.5399Z" fill="#1AA497"/>
<path d="M6.10191 10.88C4.42191 6.55999 3.52191 5.41999 0.461914 4.99999V3.73999H13.6619V4.99999C9.88192 5.59999 10.0619 6.55999 10.9619 9.01999L20.2619 33.14C20.6819 34.16 21.0419 34.16 21.4619 33.14L27.3419 17.9C28.3619 15.14 27.6419 12.62 26.9819 10.88C25.2419 6.55999 24.4019 5.41999 21.3419 4.99999V3.73999H34.4819V4.99999C30.7619 5.59999 30.8819 6.55999 31.8419 9.01999L41.0819 33.14C41.5019 34.16 41.8619 34.16 42.2819 33.14L51.4019 9.31999C52.3619 6.67999 51.0419 5.41999 47.6219 4.99999V3.73999H58.9619V4.99999C56.1419 5.53999 54.7619 6.43999 53.6219 9.31999L43.1819 36.38C42.3419 38.66 42.0419 39.86 42.0419 41H38.6819L29.6219 17.6L22.3619 36.38C21.5219 38.66 21.1619 39.86 21.1619 41H17.8619L6.10191 10.88Z" fill="#1AA497"/>
<path d="M424.538 90.1619C423.518 90.1619 422.606 90.0299 421.802 89.7659C420.998 89.5019 420.296 89.124 419.696 88.632L420.236 87.444C420.656 87.756 421.076 88.02 421.496 88.236C421.928 88.44 422.39 88.596 422.882 88.704C423.374 88.8 423.926 88.8479 424.538 88.8479C425.606 88.8479 426.398 88.65 426.914 88.254C427.43 87.858 427.688 87.33 427.688 86.67C427.688 86.106 427.508 85.674 427.148 85.374C426.788 85.074 426.158 84.8339 425.258 84.6539L423.368 84.2759C422.204 84.0359 421.334 83.6459 420.758 83.1059C420.194 82.5659 419.912 81.8339 419.912 80.91C419.912 80.1539 420.104 79.494 420.488 78.93C420.884 78.366 421.436 77.9279 422.144 77.6159C422.852 77.3039 423.674 77.1479 424.61 77.1479C425.51 77.1479 426.332 77.2859 427.076 77.5619C427.82 77.8259 428.456 78.2159 428.984 78.7319L428.462 79.8839C427.898 79.3799 427.304 79.0199 426.68 78.8039C426.068 78.5759 425.372 78.462 424.592 78.462C423.608 78.462 422.828 78.678 422.252 79.11C421.688 79.53 421.406 80.1059 421.406 80.8379C421.406 81.4259 421.586 81.8879 421.946 82.2239C422.306 82.5479 422.9 82.794 423.728 82.962L425.636 83.34C426.86 83.592 427.76 83.9699 428.336 84.4739C428.912 84.9779 429.2 85.6859 429.2 86.5979C429.2 87.2939 429.008 87.9119 428.624 88.452C428.252 88.992 427.718 89.412 427.022 89.712C426.326 90.012 425.498 90.1619 424.538 90.1619Z" fill="#1AA497"/>
<path d="M411.353 90.1621C409.637 90.1621 408.359 89.7241 407.519 88.8481C406.691 87.9721 406.277 86.6821 406.277 84.9781V77.3101H407.753V84.9061C407.753 86.2141 408.041 87.1981 408.617 87.8581C409.193 88.5181 410.105 88.8481 411.353 88.8481C412.529 88.8481 413.423 88.5181 414.035 87.8581C414.647 87.1981 414.953 86.2141 414.953 84.9061V77.3101H416.429V84.9781C416.429 86.6821 415.997 87.9721 415.133 88.8481C414.281 89.7241 413.021 90.1621 411.353 90.1621Z" fill="#1AA497"/>
<path d="M386.075 90.0001V77.3101H387.569V82.9261H395.219V77.3101H396.695V90.0001H395.219V84.2041H387.569V90.0001H386.075Z" fill="#1AA497"/>
<path d="M377.389 90.0001V78.5701H372.907V77.3101H383.347V78.5701H378.883V90.0001H377.389Z" fill="#1AA497"/>
<path d="M368.753 90.0001V77.3101H370.247V90.0001H368.753Z" fill="#1AA497"/>
<path d="M351.288 90.0001L346.86 77.3101H348.426L352.296 88.7401H351.666L355.734 77.3101H356.922L360.774 88.7401H360.198L364.176 77.3101H365.652L361.188 90.0001H359.856L356.112 79.0021H356.49L352.584 90.0001H351.288Z" fill="#1AA497"/>
<path d="M330.756 90.0001V77.3101H338.856V78.5341H332.214V82.9441H338.46V84.1861H332.214V88.7581H338.856V90.0001H330.756Z" fill="#1AA497"/>
<path d="M322.071 90.0001V78.5701H317.589V77.3101H328.029V78.5701H323.565V90.0001H322.071Z" fill="#1AA497"/>
<path d="M304.968 90.0001L310.566 77.3101H311.862L317.55 90.0001H316.002L314.418 86.3821L315.084 86.7601H307.326L308.046 86.3821L306.498 90.0001H304.968ZM311.196 79.0201L308.28 85.8601L307.848 85.5361H314.544L314.22 85.8601L311.232 79.0201H311.196Z" fill="#1AA497"/>
<path d="M293.058 90.0001V77.3101H298.242C299.574 77.3101 300.606 77.6281 301.338 78.2641C302.07 78.8881 302.436 79.7641 302.436 80.8921C302.436 81.6361 302.268 82.2721 301.932 82.8001C301.608 83.3161 301.146 83.7121 300.546 83.9881C299.958 84.2641 299.268 84.4021 298.476 84.4021L298.8 84.1681H299.16C299.652 84.1681 300.09 84.2881 300.474 84.5281C300.87 84.7681 301.182 85.1701 301.41 85.7341L303.21 90.0001H301.572L299.844 85.8061C299.64 85.2661 299.334 84.9181 298.926 84.7621C298.518 84.5941 298.008 84.5101 297.396 84.5101H294.552V90.0001H293.058ZM294.552 83.3401H298.026C298.986 83.3401 299.712 83.1361 300.204 82.7281C300.708 82.3081 300.96 81.7081 300.96 80.9281C300.96 80.1481 300.708 79.5541 300.204 79.1461C299.712 78.7381 298.986 78.5341 298.026 78.5341H294.552V83.3401Z" fill="#1AA497"/>
<path d="M279.924 90.0001V77.3101H285C286.344 77.3101 287.382 77.5981 288.114 78.1741C288.846 78.7501 289.212 79.5661 289.212 80.6221C289.212 81.4141 288.972 82.0741 288.492 82.6021C288.024 83.1301 287.37 83.4781 286.53 83.6461V83.3941C287.466 83.5021 288.198 83.8261 288.726 84.3661C289.266 84.8941 289.536 85.6081 289.536 86.5081C289.536 87.6361 289.158 88.5001 288.402 89.1001C287.658 89.7001 286.602 90.0001 285.234 90.0001H279.924ZM281.382 88.7941H285.09C286.002 88.7941 286.722 88.6201 287.25 88.2721C287.79 87.9121 288.06 87.3181 288.06 86.4901C288.06 85.6501 287.79 85.0561 287.25 84.7081C286.722 84.3481 286.002 84.1681 285.09 84.1681H281.382V88.7941ZM281.382 82.9801H284.784C285.768 82.9801 286.506 82.7881 286.998 82.4041C287.49 82.0201 287.736 81.4681 287.736 80.7481C287.736 80.0041 287.49 79.4461 286.998 79.0741C286.506 78.6901 285.768 78.4981 284.784 78.4981H281.382V82.9801Z" fill="#1AA497"/>
<path d="M268.442 90.0001V77.3101H276.542V78.5341H269.9V82.9441H276.146V84.1861H269.9V88.7581H276.542V90.0001H268.442Z" fill="#1AA497"/>
<path d="M257.733 90.0001V77.3101H259.227V88.7041H265.635V90.0001H257.733Z" fill="#1AA497"/>
<path d="M246.251 90.0001V77.3101H254.351V78.5341H247.709V82.9441H253.955V84.1861H247.709V88.7581H254.351V90.0001H246.251Z" fill="#1AA497"/>
<path d="M238.573 90.1619C237.301 90.1619 236.221 89.8979 235.333 89.3699C234.445 88.8419 233.761 88.0919 233.281 87.1199C232.813 86.1479 232.579 84.99 232.579 83.646C232.579 82.302 232.813 81.15 233.281 80.19C233.761 79.218 234.445 78.468 235.333 77.94C236.221 77.412 237.301 77.1479 238.573 77.1479C239.473 77.1479 240.277 77.2859 240.985 77.5619C241.693 77.8379 242.311 78.2399 242.839 78.768L242.281 79.9559C241.705 79.4519 241.135 79.086 240.571 78.858C240.007 78.6179 239.347 78.4979 238.591 78.4979C237.139 78.4979 236.035 78.9479 235.279 79.8479C234.523 80.7479 234.145 82.014 234.145 83.646C234.145 85.278 234.523 86.55 235.279 87.462C236.035 88.362 237.139 88.812 238.591 88.812C239.347 88.812 240.007 88.6979 240.571 88.4699C241.135 88.2299 241.705 87.852 242.281 87.336L242.839 88.542C242.311 89.058 241.693 89.46 240.985 89.748C240.277 90.024 239.473 90.1619 238.573 90.1619Z" fill="#1AA497"/>
<path d="M213.106 90.0001V77.3101H217.318C218.722 77.3101 219.91 77.5561 220.882 78.0481C221.854 78.5281 222.592 79.2421 223.096 80.1901C223.6 81.1261 223.852 82.2781 223.852 83.6461C223.852 85.0021 223.6 86.1541 223.096 87.1021C222.592 88.0501 221.854 88.7701 220.882 89.2621C219.91 89.7541 218.722 90.0001 217.318 90.0001H213.106ZM214.6 88.7221H217.21C218.938 88.7221 220.222 88.3021 221.062 87.4621C221.902 86.6101 222.322 85.3381 222.322 83.6461C222.322 81.9421 221.902 80.6701 221.062 79.8301C220.222 78.9901 218.938 78.5701 217.21 78.5701H214.6V88.7221Z" fill="#1AA497"/>
<path d="M198.759 90.0001V77.3101H199.929L208.065 88.1101H207.651V77.3101H209.037V90.0001H207.885L199.749 79.2001H200.145V90.0001H198.759Z" fill="#1AA497"/>
<path d="M183.362 90.0001L188.96 77.3101H190.256L195.944 90.0001H194.396L192.812 86.3821L193.478 86.7601H185.72L186.44 86.3821L184.892 90.0001H183.362ZM189.59 79.0201L186.674 85.8601L186.242 85.5361H192.938L192.614 85.8601L189.626 79.0201H189.59Z" fill="#1AA497"/>
<path d="M167.547 90.0001V77.3101H175.647V78.5341H169.005V82.9441H175.251V84.1861H169.005V88.7581H175.647V90.0001H167.547Z" fill="#1AA497"/>
<path d="M151.214 90.0001V77.3101H152.51L157.604 88.8121H157.082L162.176 77.3101H163.472V90.0001H162.104V79.2361H162.644L157.838 90.0001H156.848L152.024 79.2361H152.564V90.0001H151.214Z" fill="#1AA497"/>
<path d="M135.923 83.646C135.923 82.302 136.151 81.15 136.607 80.19C137.075 79.218 137.741 78.468 138.605 77.94C139.481 77.412 140.531 77.1479 141.755 77.1479C142.943 77.1479 143.975 77.412 144.851 77.94C145.727 78.468 146.399 79.218 146.867 80.19C147.347 81.15 147.587 82.296 147.587 83.628C147.587 84.972 147.347 86.1299 146.867 87.1019C146.387 88.0739 145.709 88.8299 144.833 89.3699C143.969 89.8979 142.943 90.1619 141.755 90.1619C140.531 90.1619 139.487 89.8979 138.623 89.3699C137.759 88.8299 137.093 88.0739 136.625 87.1019C136.157 86.1299 135.923 84.978 135.923 83.646ZM137.489 83.646C137.489 85.278 137.849 86.5559 138.569 87.4799C139.289 88.3919 140.351 88.8479 141.755 88.8479C143.099 88.8479 144.143 88.3919 144.887 87.4799C145.643 86.5559 146.021 85.278 146.021 83.646C146.021 82.002 145.649 80.73 144.905 79.83C144.161 78.9179 143.111 78.462 141.755 78.462C140.351 78.462 139.289 78.9179 138.569 79.83C137.849 80.73 137.489 82.002 137.489 83.646Z" fill="#1AA497"/>
<path d="M129.082 90.1619C127.81 90.1619 126.73 89.8979 125.842 89.3699C124.954 88.8419 124.27 88.0919 123.79 87.1199C123.322 86.1479 123.088 84.99 123.088 83.646C123.088 82.302 123.322 81.15 123.79 80.19C124.27 79.218 124.954 78.468 125.842 77.94C126.73 77.412 127.81 77.1479 129.082 77.1479C129.982 77.1479 130.786 77.2859 131.494 77.5619C132.202 77.8379 132.82 78.2399 133.348 78.768L132.79 79.9559C132.214 79.4519 131.644 79.086 131.08 78.858C130.516 78.6179 129.856 78.4979 129.1 78.4979C127.648 78.4979 126.544 78.9479 125.788 79.8479C125.032 80.7479 124.654 82.014 124.654 83.646C124.654 85.278 125.032 86.55 125.788 87.462C126.544 88.362 127.648 88.812 129.1 88.812C129.856 88.812 130.516 88.6979 131.08 88.4699C131.644 88.2299 132.214 87.852 132.79 87.336L133.348 88.542C132.82 89.058 132.202 89.46 131.494 89.748C130.786 90.024 129.982 90.1619 129.082 90.1619Z" fill="#1AA497"/>
</svg>
